#!OML:ASF E:/inclinewalkrobotboard/Project1/Captureday1/Session1/subject1.ASF
:FULLY-SPECIFIED
:DEGREES
163
root 0 0 0 -3.853871443334905 -2.134865695924766 -5.181625268343603
lowerback 11.775462733000799 -0.4934871254380341 2.5180664079035413
upperback 0.6443412635720521 -0.15613397181059163 3.009982253106309
thorax -5.937761812915616 -0.10286959629946602 1.7599842338785456
lowerneck -15.855442515051237 -2.7086893906167484 -1.5030292291893272
upperneck 18.9857923957746 -3.241197189834133 -0.18296919855215887
head 8.647247990261786 -1.676136703949437 -0.22251196128993805
rclavicle -1.4951486907164976E-15 -5.335576763930946E-15
rhumerus -34.40650835820192 -22.977766252263308 -78.07618383226735
rradius 18.656475365159537
rwrist 8.331606254138318
rhand -17.757314757194518 26.252568884774767
rfingers 7.1250200000000214
rthumb 8.499433750078515 -3.539311721578315
lclavicle -3.7895628844210545E-15 -6.528887287457987E-15
lhumerus -30.542829083888755 -1.25389231664206 83.58390818419775
lradius 28.478022261684906
lwrist 6.465105122545246
lhand -27.67474348823582 24.60561096728537
lfingers 7.125020000000024
lthumb -1.0780404407354274 54.591535176871496
rfemur -13.997202251511322 7.571513178611909 29.35995940647495
rtibia 25.971399318958564
rfoot -12.369572637523909 -5.838281710649193
rtoes 10.633917131934206
lfemur -18.208622266867724 3.663764441808527 -11.76219643854847
ltibia 71.24190079005342
lfoot 8.01388401864784 -14.483884235699865
ltoes -9.582295270531663
164
root 0 0 0 -3.9047909155874767 -3.7399811401305936 -5.989140442483539
lowerback 11.670117277747785 0.460211972608712 3.794897292963685
upperback 0.21048627940383335 1.2629923637389757 2.7116905356356584
thorax -6.308777298230903 0.5580759956942072 0.5089829393601554
lowerneck -15.917383312004358 -2.8868101403071167 -1.1076636212141302
upperneck 19.924036514697328 -3.6598623117048805 0.04470354210366834
head 9.050446586868999 -1.797639184766101 -0.2671138263254678
rclavicle -4.656972362793314E-15 -2.509959019588245E-15
rhumerus -33.626966546147834 -21.65984959091525 -78.70935709249068
rradius 19.75006461388947
rwrist 7.5885053123200406
rhand -17.848475123127923 26.25630698235568
rfingers 7.125020000000019
rthumb 8.413217017177125 -3.5399883063394455
lclavicle -6.681771736529798E-15 -3.4073713068556483E-15
lhumerus -31.67183190885945 -0.43313494424419174 84.00091852123772
lradius 27.503459458739492
lwrist 6.3121522184670855
lhand -27.663452749401728 24.59807506896099
lfingers 7.125020000000028
lthumb -1.0669553826699945 54.58499473143267
rfemur -6.477723349447326 8.402584750929321 34.061453565782415
rtibia 25.742653036613735
rfoot -19.194772175864642 -6.0810487588417885
rtoes 10.662737890800384
lfemur -22.896818601667857 4.6006379042628485 -11.933396230855955
ltibia 71.45000190802146
lfoot 3.7413774440290304 -11.142990715472775
ltoes -7.7375182413448975
165
root 0 0 0 -2.917666691027482 -4.781052819756815 -6.903457981608124
lowerback 10.258776006871077 1.2464098276232 5.413581826685396
upperback -0.24795035485811326 2.469919969215897 2.4510999990475177
thorax -5.910095693889777 1.1085115558232812 -0.8432337205843655
lowerneck -17.5236832657237 -3.02547834176335 -1.3590832622332714
upperneck 21.668094675927012 -3.9628231566491694 0.2423794842960647
head 9.845104797054379 -1.8744958580430662 -0.22771231468632597
rclavicle -7.030305868223936E-15 1.5296778864026618E-15
rhumerus -32.5846824528351 -19.830591196615842 -79.4486136386256
rradius 21.690691083420127
rwrist 5.901428819616325
rhand -18.110636647795165 26.05432480577459
rfingers 7.125020000000018
rthumb 8.162194338099448 -3.7534747465243328
lclavicle -8.620094247343826E-15 7.174986036603167E-16
lhumerus -32.51405759514569 -0.0759292538213702 84.22604698184664
lradius 27.04704187131494
lwrist 6.260518538336611
lhand -27.567343708597974 24.71104344989293
lfingers 7.125020000000027
lthumb -0.9711064276822805 54.69908518233776
rfemur -5.027106038084588 8.346107957489545 34.721304859276174
rtibia 25.26840543973672
rfoot -21.63567429290044 -6.331122128742018
rtoes 10.190757801847308
lfemur -26.91755083067299 4.522001151366673 -12.564216531379635
ltibia 63.39769240246669
lfoot -1.2202154634719466 -6.599647947317289
ltoes -3.939353811916668
166
root 0 0 0 -1.9218698458014336 -5.571887560496403 -7.48033876909669
lowerback 10.574571196388272 1.7005312073260654 6.402117516829876
upperback 0.25894803675216377 3.1678340026116505 2.3132027343305337
thorax -5.460373633946969 1.425957025259004 -1.6335818028939517
lowerneck -18.71276254483583 -3.2200635679320357 -1.8011382336249588
upperneck 20.86225213370825 -4.167685544336558 0.2949087295945503
head 9.73299998913003 -1.979465916967479 -0.17185535229986726
rclavicle -7.300425518237608E-15 2.8072653503384706E-15
rhumerus -31.452149868222804 -17.740891452281588 -80.32507459598746
rradius 23.685717432526708
rwrist 4.497414677775057
rhand -18.40759603472175 26.114496492422553
rfingers 7.125020000000016
rthumb 7.874831038689035 -3.723019799579035
lclavicle -8.198883703580016E-15 2.1361979162627796E-15
lhumerus -32.98151219534762 0.22937979073413833 84.43524530072108
lradius 26.669903868205395
lwrist 6.1719311722062535
lhand -27.55758585995371 24.532104959935563
lfingers 7.1250200000000286
lthumb -0.9610404727581372 54.523222020534405
rfemur -4.401540099622953 8.30080298035424 34.55065136864984
rtibia 24.638708667847403
rfoot -22.107342861562028 -6.627441999556569
rtoes 9.753018580401298
lfemur -29.51340959606902 3.1277219349315706 -13.267975710411395
ltibia 49.00990055491517
lfoot -5.7370785226677175 -1.64254312535865
ltoes -1.3197780754467523
167
root 0 0 0 -1.0438951754174095 -6.1497843717558585 -7.4496339986750275
lowerback 10.526564798377422 1.9922220461021478 6.546834204215339
upperback 0.6899986469627477 3.5171904882126004 2.060080763560733
thorax -4.954097007083093 1.5967730897876447 -2.0319182070813877
lowerneck -18.21736877542729 -3.098263086597578 -1.8428262382533398
upperneck 19.259102175141877 -3.914324086749752 0.30059633867687796
head 9.035817682092059 -1.9042967834783568 -0.11734497059555349
rclavicle -7.28163068326096E-15 1.9498421703566856E-15
rhumerus -30.024936673718543 -15.18692635493276 -81.12670151011551
rradius 25.921447674735276
rwrist 2.881568205263732
rhand -18.72798910621841 26.470489137968258
rfingers 7.125020000000011
rthumb 7.565049867033273 -3.3938407322051987
lclavicle -7.546004919452515E-15 1.5673693364383768E-15
lhumerus -33.54783870072107 1.1703971030544107 84.51866119336363
lradius 25.71716619899336
lwrist 5.923841085621346
lhand -27.595917599264133 24.75896794298904
lfingers 7.125020000000028
lthumb -1.0005920032991442 54.7618043861623
rfemur -1.1371768532564879 8.425259731654188 35.01555978387262
rtibia 24.536217049112924
rfoot -22.22117987146187 -6.498860999633772
rtoes 6.01073694975567
lfemur -27.169247704389562 -2.7759376721661724 -13.185939174973221
ltibia 23.274234999797475
lfoot -5.507483762913045 3.087389982709709
ltoes 0.24999786966284532
168
root 0 0 0 -0.8301980415468079 -6.276627248597612 -7.378527140578916
lowerback 10.457651091336162 2.0698383008153187 6.495623975337048
upperback 0.752121614334407 3.594614773678905 1.9602694348382477
thorax -4.850761536724994 1.6362875385836892 -2.1199050759868743
lowerneck -17.99873739740716 -3.020722812283211 -1.8086507179171836
upperneck 18.44365606676658 -3.785473576325031 0.3013143578940427
head 8.699274898772924 -1.85826389341029 -0.09955408635059049
rclavicle -7.638597543657193E-15 4.591511672297505E-16
rhumerus -29.836711876511284 -14.987703911725852 -81.07532556192126
rradius 26.180121910358352
rwrist 2.476253182551635
rhand -18.781896110856817 26.48849169498623
rfingers 7.12502000000001
rthumb 7.513557134318086 -3.3708313828641394
lclavicle -8.077736135121537E-15 -8.469517655173578E-17
lhumerus -34.150792712349734 2.005159579934638 84.39910470457704
lradius 24.950311074517366
lwrist 5.536158391583155
lhand -27.553608238434705 24.705866805831633
lfingers 7.12502000000003
lthumb -0.9570171151504949 54.71086083206947
rfemur 6.981296926625954 8.801679887060404 36.20850041208
rtibia 24.067871361905244
rfoot -21.214029560655785 -4.934994650048072
rtoes -2.1697112912922476
lfemur -26.60652331200038 -4.386628144939905 -12.650676155825325
ltibia 21.298065240130924
lfoot -5.092327632947532 3.8517175762336047
ltoes 0.3380626301523506
169
root 0 0 0 -0.9701374286577242 -6.27170925307956 -7.176286816844119
lowerback 10.372623284574795 2.1227273977600403 6.334565183169324
upperback 0.7158944339106594 3.642165817773141 1.9019197891933053
thorax -4.844312126185053 1.6645632512524877 -2.0925327950172483
lowerneck -18.022201186533188 -3.0478144626896224 -1.8395935290848309
upperneck 18.540071407211908 -3.8342729987504054 0.36806893894900905
head 8.740672232699687 -1.874586760940201 -0.07891602865365849
rclavicle -8.70797274198065E-15 -1.4077924499522405E-15
rhumerus -30.212927060538938 -15.761532230619 -80.7662939733041
rradius 25.49280450367946
rwrist 2.939152026254729
rhand -18.70970206917129 26.403930909081332
rfingers 7.125020000000012
rthumb 7.583354360217397 -3.446839558806907
lclavicle -9.394879022962517E-15 -1.9991620391628036E-15
lhumerus -35.37407280235651 3.3861971954573993 83.74126622994342
lradius 24.00766233404819
lwrist 4.700295764386061
lhand -27.24955330444 24.38347787448489
lfingers 7.125020000000032
lthumb -0.6625536066156696 54.38156001837332
rfemur 9.06268992558445 8.643841564006614 36.28538204927426
rtibia 25.999039195220238
rfoot -19.653755468604622 -3.9385118964881145
rtoes -5.240494567517782
lfemur -26.540170245794577 -4.287442833208715 -12.993180158766082
ltibia 21.574397621563065
lfoot -4.905639735798644 3.3094019581036545
ltoes 0.3704423901685203
